<mxfile host="app.diagrams.net" modified="2022-02-28T07:40:22.366Z" agent="5.0 (Windows NT 10.0; Win64; x64) AppleWebKit/537.36 (KHTML, like Gecko) Chrome/84.0.4147.125 Safari/537.36" etag="gVtSAaGPpjlx7KndyPG_" version="16.6.4" type="github">
  <diagram id="kHYABYxaknvEn-FH6Wpx" name="Page-1">
    <mxGraphModel dx="1422" dy="753" grid="1" gridSize="10" guides="1" tooltips="1" connect="1" arrows="1" fold="1" page="1" pageScale="1" pageWidth="827" pageHeight="1169" math="0" shadow="0">
      <root>
        <mxCell id="0" />
        <mxCell id="1" parent="0" />
        <mxCell id="1dE0bFyq6JJN1Ia1ECEi-1" value="" style="rounded=0;whiteSpace=wrap;html=1;" vertex="1" parent="1">
          <mxGeometry x="130" y="220" width="340" height="440" as="geometry" />
        </mxCell>
        <mxCell id="1dE0bFyq6JJN1Ia1ECEi-2" value="" style="rounded=0;whiteSpace=wrap;html=1;fillColor=#fff2cc;strokeColor=#d6b656;" vertex="1" parent="1">
          <mxGeometry x="190" y="160" width="170" height="60" as="geometry" />
        </mxCell>
        <mxCell id="1dE0bFyq6JJN1Ia1ECEi-3" value="" style="rounded=0;whiteSpace=wrap;html=1;fillColor=#f5f5f5;fontColor=#333333;strokeColor=#666666;" vertex="1" parent="1">
          <mxGeometry x="410" y="220" width="60" height="150" as="geometry" />
        </mxCell>
        <mxCell id="1dE0bFyq6JJN1Ia1ECEi-5" value="" style="rounded=0;whiteSpace=wrap;html=1;fillColor=#f5f5f5;fontColor=#333333;strokeColor=#666666;" vertex="1" parent="1">
          <mxGeometry x="270" y="510" width="200" height="150" as="geometry" />
        </mxCell>
        <mxCell id="1dE0bFyq6JJN1Ia1ECEi-6" value="" style="rounded=0;whiteSpace=wrap;html=1;" vertex="1" parent="1">
          <mxGeometry x="140" y="650" width="90" height="10" as="geometry" />
        </mxCell>
        <mxCell id="1dE0bFyq6JJN1Ia1ECEi-7" value="" style="rounded=0;whiteSpace=wrap;html=1;fillColor=#f5f5f5;fontColor=#333333;strokeColor=#666666;" vertex="1" parent="1">
          <mxGeometry x="130" y="360" width="60" height="60" as="geometry" />
        </mxCell>
        <mxCell id="1dE0bFyq6JJN1Ia1ECEi-9" value="" style="rounded=0;whiteSpace=wrap;html=1;fillColor=#dae8fc;strokeColor=#6c8ebf;" vertex="1" parent="1">
          <mxGeometry x="350" y="220" width="60" height="150" as="geometry" />
        </mxCell>
        <mxCell id="1dE0bFyq6JJN1Ia1ECEi-10" value="" style="rounded=0;whiteSpace=wrap;html=1;fillColor=#d5e8d4;strokeColor=#82b366;" vertex="1" parent="1">
          <mxGeometry x="250" y="370" width="220" height="140" as="geometry" />
        </mxCell>
        <mxCell id="1dE0bFyq6JJN1Ia1ECEi-11" value="" style="rounded=0;whiteSpace=wrap;html=1;fillColor=#f5f5f5;fontColor=#333333;strokeColor=#666666;direction=south;" vertex="1" parent="1">
          <mxGeometry x="130" y="220" width="60" height="140" as="geometry" />
        </mxCell>
        <mxCell id="1dE0bFyq6JJN1Ia1ECEi-12" value="" style="ellipse;whiteSpace=wrap;html=1;aspect=fixed;" vertex="1" parent="1">
          <mxGeometry x="270" y="230" width="60" height="60" as="geometry" />
        </mxCell>
      </root>
    </mxGraphModel>
  </diagram>
</mxfile>
